# This file is brought to you by Roblox Corporation
# Generated by Roblox Studio

mtllib test.mtl

g Union1

v -2.5 5 -2.5 
v -2.5 -1.90735e-06 -2.5 
v -2.5 5 2.5 
v -2.5 -1.90735e-06 2.5 
v -2.5 5 2.5 
v -2.5 -1.90735e-06 2.5 
v 2.5 5 2.5 
v 2.5 -1.90735e-06 2.5 
v 2.5 5 2.5 
v 2.5 -1.90735e-06 2.5 
v 2.5 5 -2.5 
v 2.5 -1.90735e-06 -2.5 
v 2.5 -5 -2.5 
v 2.5 -1.90735e-06 -2.5 
v 2.5 -5 2.5 
v 2.5 -1.90735e-06 2.5 
v 2.5 5 -2.5 
v 2.5 -1.90735e-06 -2.5 
v -2.5 5 -2.5 
v -2.5 -1.90735e-06 -2.5 
v -2.5 -5 -2.5 
v -2.5 -1.90735e-06 -2.5 
v 2.5 -5 -2.5 
v 2.5 -1.90735e-06 -2.5 
v -2.5 -5 2.5 
v -2.5 -1.90735e-06 2.5 
v -2.5 -5 -2.5 
v -2.5 -1.90735e-06 -2.5 
v -2.5 -1.90735e-06 2.5 
v -2.5 -5 2.5 
v 2.5 -1.90735e-06 2.5 
v 2.5 -5 2.5 
v 1.25 5 -1.25 
v 1.25 -5 -1.25 
v 1.25 5 1.25 
v 1.25 -5 1.25 
v -1.25 -5 1.25 
v -1.25 5 1.25 
v 1.25 -5 1.25 
v 1.25 5 1.25 
v -1.25 -5 -1.25 
v -1.25 5 -1.25 
v -1.25 -5 1.25 
v -1.25 5 1.25 
v 1.25 -5 -1.25 
v 1.25 5 -1.25 
v -1.25 -5 -1.25 
v -1.25 5 -1.25 
v -2.5 5 -2.5 
v -1.25 5 -1.25 
v 2.5 5 -2.5 
v 1.25 5 -1.25 
v 1.25 5 1.25 
v 2.5 -5 -2.5 
v 1.25 -5 -1.25 
v -2.5 -5 -2.5 
v -1.25 -5 -1.25 
v -1.25 -5 1.25 
v 1.25 -5 1.25 
v -1.25 5 1.25 
v 2.5 5 2.5 
v 2.5 -5 2.5 
v -2.5 5 2.5 
v -2.5 -5 2.5 

vn -1 0 0 
vn -1 0 0 
vn -1 0 0 
vn -1 0 0 
vn 0 0 1 
vn 0 0 1 
vn 0 0 1 
vn 0 0 1 
vn 1 0 0 
vn 1 0 0 
vn 1 0 0 
vn 1 0 0 
vn 1 0 0 
vn 1 0 0 
vn 1 0 0 
vn 1 0 0 
vn 0 0 -1 
vn 0 0 -1 
vn 0 0 -1 
vn 0 0 -1 
vn 0 0 -1 
vn 0 0 -1 
vn 0 0 -1 
vn 0 0 -1 
vn -1 0 0 
vn -1 0 0 
vn -1 0 0 
vn -1 0 0 
vn 0 0 1 
vn 0 0 1 
vn 0 0 1 
vn 0 0 1 
vn -1 0 0 
vn -1 0 0 
vn -1 0 0 
vn -1 0 0 
vn 0 0 -1 
vn 0 0 -1 
vn 0 0 -1 
vn 0 0 -1 
vn 1 0 0 
vn 1 0 0 
vn 1 0 0 
vn 1 0 0 
vn 0 0 1 
vn 0 0 1 
vn 0 0 1 
vn 0 0 1 
vn 0 1 0 
vn 0 1 0 
vn 0 1 0 
vn 0 1 0 
vn 0 1 0 
vn 0 -1 0 
vn 0 -1 0 
vn 0 -1 0 
vn 0 -1 0 
vn 0 -1 0 
vn 0 -1 0 
vn 0 1 0 
vn 0 1 0 
vn 0 -1 0 
vn 0 1 0 
vn 0 -1 0 

vt 21.6875 -44.375 
vt 21.6875 -45 
vt 22.3125 -44.375 
vt 22.3125 -45 
vt 21.6875 -44.375 
vt 21.6875 -45 
vt 22.3125 -44.375 
vt 22.3125 -45 
vt 21.6875 -44.375 
vt 21.6875 -45 
vt 22.3125 -44.375 
vt 22.3125 -45 
vt 22.3125 -45.625 
vt 22.3125 -45 
vt 21.6875 -45.625 
vt 21.6875 -45 
vt 21.6875 -44.375 
vt 21.6875 -45 
vt 22.3125 -44.375 
vt 22.3125 -45 
vt 22.3125 -45.625 
vt 22.3125 -45 
vt 21.6875 -45.625 
vt 21.6875 -45 
vt 22.3125 -45.625 
vt 22.3125 -45 
vt 21.6875 -45.625 
vt 21.6875 -45 
vt 21.6875 -45 
vt 21.6875 -45.625 
vt 22.3125 -45 
vt 22.3125 -45.625 
vt 21.8438 -44.375 
vt 21.8438 -45.625 
vt 22.1563 -44.375 
vt 22.1563 -45.625 
vt 22.1563 -45.625 
vt 22.1563 -44.375 
vt 21.8438 -45.625 
vt 21.8438 -44.375 
vt 22.1563 -45.625 
vt 22.1563 -44.375 
vt 21.8438 -45.625 
vt 21.8438 -44.375 
vt 22.1563 -45.625 
vt 22.1563 -44.375 
vt 21.8438 -45.625 
vt 21.8438 -44.375 
vt 22.3125 -45.3125 
vt 22.1563 -45.1563 
vt 21.6875 -45.3125 
vt 21.8438 -45.1563 
vt 21.8438 -44.8438 
vt 22.3125 -45.3125 
vt 22.1563 -45.1563 
vt 21.6875 -45.3125 
vt 21.8438 -45.1563 
vt 21.8438 -44.8438 
vt 22.1563 -44.8438 
vt 22.1563 -44.8438 
vt 21.6875 -44.6875 
vt 22.3125 -44.6875 
vt 22.3125 -44.6875 
vt 21.6875 -44.6875 

usemtl Union1Mtl

f 1/1/1 2/2/2 3/3/3 
f 2/2/2 4/4/4 3/3/3 
f 5/5/5 6/6/6 7/7/7 
f 6/6/6 8/8/8 7/7/7 
f 9/9/9 10/10/10 11/11/11 
f 10/10/10 12/12/12 11/11/11 
f 13/13/13 14/14/14 15/15/15 
f 14/14/14 16/16/16 15/15/15 
f 17/17/17 18/18/18 19/19/19 
f 18/18/18 20/20/20 19/19/19 
f 21/21/21 22/22/22 23/23/23 
f 22/22/22 24/24/24 23/23/23 
f 25/25/25 26/26/26 27/27/27 
f 26/26/26 28/28/28 27/27/27 
f 29/29/29 30/30/30 31/31/31 
f 30/30/30 32/32/32 31/31/31 
f 33/33/33 34/34/34 35/35/35 
f 34/34/34 36/36/36 35/35/35 
f 37/37/37 38/38/38 39/39/39 
f 38/38/38 40/40/40 39/39/39 
f 41/41/41 42/42/42 43/43/43 
f 42/42/42 44/44/44 43/43/43 
f 45/45/45 46/46/46 47/47/47 
f 46/46/46 48/48/48 47/47/47 
f 49/49/49 50/50/50 51/51/51 
f 50/50/50 52/52/52 51/51/51 
f 52/52/52 53/53/53 51/51/51 
f 54/54/54 55/55/55 56/56/56 
f 55/55/55 57/57/57 56/56/56 
f 57/57/57 58/58/58 56/56/56 
f 55/55/55 54/54/54 59/59/59 
f 50/50/50 49/49/49 60/60/60 
f 53/53/53 61/61/61 51/51/51 
f 59/59/59 62/62/62 58/58/58 
f 54/54/54 62/62/62 59/59/59 
f 60/60/60 63/63/63 53/53/53 
f 49/49/49 63/63/63 60/60/60 
f 63/63/63 61/61/61 53/53/53 
f 58/58/58 64/64/64 56/56/56 
f 62/62/62 64/64/64 58/58/58 

